<svg xmlns="http://www.w3.org/2000/svg" xmlns:svg="http://www.w3.org/2000/svg" id="svg6" width="24" height="24" fill="#000" version="1.1" viewBox="0 0 24 24"><metadata id="metadata12"/><path id="path2" fill="none" d="M0 0h24v24H0z"/><path id="path4" d="M 12 4 C 9.11 4 6.5996094 5.6390625 5.3496094 8.0390625 C 2.3396094 8.3590625 -1.1842379e-15 10.91 0 14 C 0 17.31 2.69 20 6 20 L 19 20 C 21.76 20 24 17.76 24 15 C 24 12.36 21.949609 10.219062 19.349609 10.039062 C 18.669609 6.5890625 15.64 4 12 4 z M 12 5.8125 L 12 7.5 C 14.48625 7.5 16.5 9.51375 16.5 12 C 16.5 12.883125 16.241484 13.704609 15.802734 14.396484 L 14.980469 13.574219 C 15.233594 13.107344 15.375 12.568125 15.375 12 C 15.375 10.138125 13.861874 8.625 12 8.625 L 12 10.3125 L 9.75 8.0625 L 12 5.8125 z M 8.1972656 9.6035156 L 9.0195312 10.425781 C 8.7664062 10.892656 8.625 11.431875 8.625 12 C 8.625 13.861875 10.138125 15.375 12 15.375 L 12 13.6875 L 14.25 15.9375 L 12 18.1875 L 12 16.5 C 9.51375 16.5 7.5 14.48625 7.5 12 C 7.5 11.116875 7.7585156 10.295391 8.1972656 9.6035156 z"/></svg>