<svg xmlns="http://www.w3.org/2000/svg" xmlns:svg="http://www.w3.org/2000/svg" id="svg2" width="24" height="24" version="1.1"><metadata id="metadata7"/><g id="layer1" transform="translate(0,-1028.3622)"><path style="fill:#1a1a1a;fill-rule:evenodd;stroke:#000;stroke-width:1px;stroke-linecap:butt;stroke-linejoin:miter;stroke-opacity:1" id="rect2985" d="m 2.4435586,1039.0094 c -0.6609274,0.6609 -0.6609274,1.7256 0,2.3865 l 0.088388,0.088 c 0.6609274,0.6609 1.725558,0.6609 2.3864854,0 l 7.093166,-7.0932 7.181553,7.1816 c 0.660927,0.6609 1.725558,0.6609 2.386485,0 l 0.110485,-0.1105 c 0.660928,-0.6609 0.660928,-1.7256 0,-2.3865 l -8.374795,-8.3748 -0.0442,-0.044 c -0.01589,-0.016 -0.02785,-0.029 -0.04419,-0.044 -0.660927,-0.6609 -1.725558,-0.6609 -2.386485,0 l -8.3968938,8.3969 z"/><path style="fill:#1a1a1a;fill-rule:evenodd;stroke:#000;stroke-width:1px;stroke-linecap:butt;stroke-linejoin:miter;stroke-opacity:1" id="rect2985-6" d="m 2.6508842,1047.0718 c -0.6609274,0.6609 -0.6609274,1.7256 0,2.3865 l 0.088388,0.088 c 0.6609274,0.6609 1.7255583,0.6609 2.3864853,0 l 7.0931655,-7.0932 7.181553,7.1816 c 0.660927,0.6609 1.725558,0.6609 2.386485,0 l 0.110485,-0.1105 c 0.660928,-0.6609 0.660928,-1.7256 0,-2.3865 l -8.374795,-8.3748 -0.0442,-0.044 c -0.01589,-0.016 -0.02785,-0.029 -0.04419,-0.044 -0.660927,-0.6609 -1.725558,-0.6609 -2.386484,0 l -8.3968942,8.3969 z"/></g></svg>