<svg xmlns="http://www.w3.org/2000/svg" xmlns:svg="http://www.w3.org/2000/svg" id="svg2" width="256" height="256" version="1.1"><metadata id="metadata7"/><g id="layer1" transform="translate(0,-796.36218)"><path style="fill:none;stroke:#000;stroke-width:26;stroke-linecap:round;stroke-linejoin:round;stroke-miterlimit:4;stroke-opacity:1;stroke-dasharray:none" id="path2985" d="m 25,855.87869 0,136.96699 206,0 0,-136.96699"/><path style="fill:red;fill-opacity:1;fill-rule:nonzero;stroke:none" id="path3755" d="m 134.35028,121.64971 a 24.748737,24.748737 0 1 1 -49.49747,0 24.748737,24.748737 0 1 1 49.49747,0 z" transform="matrix(0.80812204,0,0,0.80812204,142.42857,894.53737)"/><path style="fill:red;fill-opacity:1;fill-rule:nonzero;stroke:none" id="path3755-9" d="m 134.35028,121.64971 a 24.748737,24.748737 0 1 1 -49.49747,0 24.748737,24.748737 0 1 1 49.49747,0 z" transform="matrix(0.80812204,0,0,0.80812204,-63.571426,894.53737)"/><g transform="scale(0.93424041,1.0703883)" style="font-size:167.5866394px;font-style:normal;font-variant:normal;font-weight:400;font-stretch:normal;line-height:125%;letter-spacing:0;word-spacing:0;fill:#000;fill-opacity:1;stroke:none;font-family:Liberation Sans;-inkscape-font-specification:Liberation Sans" id="text3793"><path id="path3817" d="m 128.45853,792.84841 17.75698,0 41.733,103.7597 0,11.53795 -101.877616,0 0.08183,-11.53795 42.305806,-103.7597 m 43.1241,102.53226 -27.65834,-70.53696 c -1.63665,-4.03683 -3.16413,-8.2374 -4.58245,-12.60173 -1.36388,-4.41868 -2.10034,-6.95539 -2.20939,-7.61013 l -0.73647,2.61854 c -1.69119,6.05547 -3.70965,11.97446 -6.05537,17.75698 l -27.74017,70.3733 68.98219,0"/></g></g></svg>