<svg xmlns="http://www.w3.org/2000/svg" xmlns:svg="http://www.w3.org/2000/svg" id="svg3695" width="134.424" height="187.007" version="1.0"><defs id="defs3697"><linearGradient id="linearGradient49770"><stop id="stop49772" offset="0" style="stop-color:#959595;stop-opacity:1"/><stop id="stop49774" offset="1" style="stop-color:black;stop-opacity:1"/></linearGradient></defs><metadata id="metadata3700"/><g id="layer1" transform="translate(-782.66331,-422.76616)"><g id="g108374" transform="matrix(1.22961,0,0,1.22961,261.37024,2463.4334)" style="fill:#000"><path id="path101559" d="m 479.34671,-1507.5186 -55.39678,0 16.66803,-56.6225 c 6.91443,6.0951 5.12802,10.1512 20.1808,12.7314 z" style="fill:#000;fill-opacity:1;fill-rule:evenodd;stroke:none"/><path id="path101561" d="m 441.28682,-1648.1064 c 25.10467,45.2616 36.79048,57.1792 90.35945,68.6902 -59.3871,16.8959 -91.59423,5.0467 -90.35945,-68.6902 z" style="fill:#000;fill-opacity:1;fill-rule:evenodd;stroke:none"/><path style="fill:none;stroke:#000;stroke-width:8;stroke-linecap:round;stroke-miterlimit:4;stroke-opacity:1;stroke-dasharray:none" id="path4201" d="m 64.75,19.546842 c 20.805729,-11.874122 47.40991,-4.82749 59.4221,15.739092 6.42915,11.007612 7.60232,24.26291 3.20453,36.206868" transform="matrix(0.81326599,0,0,0.81326599,421.1035,-1667.558)"/><path style="fill:none;stroke:#000;stroke-width:8;stroke-linecap:round;stroke-miterlimit:4;stroke-opacity:1;stroke-dasharray:none" id="path4205" d="m 81.375,33.199882 c 9.446279,-6.006097 21.52519,-2.441812 26.979,7.961052 2.91898,5.567804 3.45163,12.272519 1.45493,18.313939" transform="matrix(0.81326599,0,0,0.81326599,418.6637,-1663.4916)"/></g></g></svg>