<svg xmlns="http://www.w3.org/2000/svg" xmlns:svg="http://www.w3.org/2000/svg" id="svg25756" width="22" height="66" version="1.1" viewBox="0 0 22 66"><metadata id="metadata25760"/><defs id="defs3051"><style id="current-color-scheme" type="text/css"/></defs><path id="path1012" d="M 1.6913554e-16,4.7920842e-9 H 2.7632416 V 66 H 0 Z" style="color:#4d4d4d;fill:#000;fill-opacity:1;stroke:none;stroke-width:.99999994"/><path id="path904" d="m 9,31 v 4 l 4,-2 z" style="color:#4d4d4d;fill:#000;fill-opacity:1;stroke:#fff;stroke-width:.2;stroke-miterlimit:4;stroke-dasharray:none;stroke-linejoin:bevel;stroke-linecap:round"/><path id="path888" d="M 0.69081079,39.883391 H 2.0724316 v 1.381621 H 0.69081079 Z" style="color:#4d4d4d;fill:#fff;fill-opacity:1;stroke:none;stroke-width:.99999994"/><path style="color:#4d4d4d;fill:#fff;fill-opacity:1;stroke:none;stroke-width:.99999994" id="path916" d="M 0.69081079,36.883391 H 2.0724316 v 1.381621 H 0.69081079 Z"/><path id="path920" d="M 0.69081079,33.883391 H 2.0724316 v 1.381621 H 0.69081079 Z" style="color:#4d4d4d;fill:#fff;fill-opacity:1;stroke:none;stroke-width:.99999994"/><path style="color:#4d4d4d;fill:#fff;fill-opacity:1;stroke:none;stroke-width:.99999994" id="path924" d="M 0.69081079,30.883391 H 2.0724316 v 1.381621 H 0.69081079 Z"/><path id="path928" d="M 0.69081079,27.883391 H 2.0724316 v 1.381621 H 0.69081079 Z" style="color:#4d4d4d;fill:#fff;fill-opacity:1;stroke:none;stroke-width:.99999994"/><path style="color:#4d4d4d;fill:#fff;fill-opacity:1;stroke:none;stroke-width:.99999994" id="path932" d="M 0.69081079,24.883391 H 2.0724316 v 1.381621 H 0.69081079 Z"/><path id="path936" d="M 0.69081079,21.883391 H 2.0724316 v 1.381621 H 0.69081079 Z" style="color:#4d4d4d;fill:#fff;fill-opacity:1;stroke:none;stroke-width:.99999994"/><path style="color:#4d4d4d;fill:#fff;fill-opacity:1;stroke:none;stroke-width:.99999994" id="path940" d="M 0.69081079,18.883391 H 2.0724316 v 1.381621 H 0.69081079 Z"/><path id="path944" d="M 0.69081079,15.883391 H 2.0724316 v 1.381621 H 0.69081079 Z" style="color:#4d4d4d;fill:#fff;fill-opacity:1;stroke:none;stroke-width:.99999994"/><path style="color:#4d4d4d;fill:#fff;fill-opacity:1;stroke:none;stroke-width:.99999994" id="path948" d="M 0.69081079,12.883391 H 2.0724316 v 1.381621 H 0.69081079 Z"/><path id="path952" d="M 0.69081079,9.8833914 H 2.0724306 V 11.265012 H 0.69081079 Z" style="color:#4d4d4d;fill:#fff;fill-opacity:1;stroke:none;stroke-width:.99999994"/><path style="color:#4d4d4d;fill:#fff;fill-opacity:1;stroke:none;stroke-width:.99999994" id="path956" d="M 0.69081079,6.8833914 H 2.0724316 v 1.381621 H 0.69081079 Z"/><path id="path960" d="M 0.69081079,3.8833914 H 2.0724316 v 1.381621 H 0.69081079 Z" style="color:#4d4d4d;fill:#fff;fill-opacity:1;stroke:none;stroke-width:.99999994"/><path style="color:#4d4d4d;fill:#fff;fill-opacity:1;stroke:none;stroke-width:.99999994" id="path964" d="M 0.69081079,0.88339134 H 2.0724306 V 2.2650124 H 0.69081079 Z"/><path style="color:#4d4d4d;fill:#fff;fill-opacity:1;stroke:none;stroke-width:.99999994" id="path968" d="M 0.69081079,42.883391 H 2.0724316 v 1.381621 H 0.69081079 Z"/><path id="path976" d="M 0.69081079,45.883391 H 2.0724316 v 1.381621 H 0.69081079 Z" style="color:#4d4d4d;fill:#fff;fill-opacity:1;stroke:none;stroke-width:.99999994"/><path style="color:#4d4d4d;fill:#fff;fill-opacity:1;stroke:none;stroke-width:.99999994" id="path980" d="M 0.69081079,48.883391 H 2.0724316 v 1.381621 H 0.69081079 Z"/><path id="path984" d="M 0.69081079,51.883391 H 2.0724316 v 1.381621 H 0.69081079 Z" style="color:#4d4d4d;fill:#fff;fill-opacity:1;stroke:none;stroke-width:.99999994"/><path style="color:#4d4d4d;fill:#fff;fill-opacity:1;stroke:none;stroke-width:.99999994" id="path988" d="M 0.69081079,54.883391 H 2.0724316 v 1.381621 H 0.69081079 Z"/><path id="path992" d="M 0.69081079,57.883391 H 2.0724316 v 1.381621 H 0.69081079 Z" style="color:#4d4d4d;fill:#fff;fill-opacity:1;stroke:none;stroke-width:.99999994"/><path style="color:#4d4d4d;fill:#fff;fill-opacity:1;stroke:none;stroke-width:.99999994" id="path996" d="M 0.69081079,60.883391 H 2.0724316 v 1.381621 H 0.69081079 Z"/><path id="path1000" d="M 0.69081079,60.883391 H 2.0724316 v 1.381621 H 0.69081079 Z" style="color:#4d4d4d;fill:#fff;fill-opacity:1;stroke:none;stroke-width:.99999994"/><path id="path1004" d="M 0.69081079,63.883391 H 2.0724316 v 1.381621 H 0.69081079 Z" style="color:#4d4d4d;fill:#fff;fill-opacity:1;stroke:none;stroke-width:.99999994"/><path style="color:#4d4d4d;fill:#fff;fill-opacity:1;stroke:none;stroke-width:.99999994" id="path1008" d="M 0.69081079,63.883391 H 2.0724316 v 1.381621 H 0.69081079 Z"/><path style="color:#4d4d4d;fill:#000;fill-opacity:1;stroke:none;stroke-width:.99999994" id="path1018" d="m 19.237,4.7920842e-9 h 2.763242 V 66 H 19.237 Z"/><path style="color:#4d4d4d;fill:#fff;fill-opacity:1;stroke:none;stroke-width:.99999994" id="path1020" d="m 19.927811,39.883391 h 1.381621 v 1.381621 h -1.381621 z"/><path id="path1022" d="m 19.927811,36.883391 h 1.381621 v 1.381621 h -1.381621 z" style="color:#4d4d4d;fill:#fff;fill-opacity:1;stroke:none;stroke-width:.99999994"/><path style="color:#4d4d4d;fill:#fff;fill-opacity:1;stroke:none;stroke-width:.99999994" id="path1024" d="m 19.927811,33.883391 h 1.381621 v 1.381621 h -1.381621 z"/><path id="path1026" d="m 19.927811,30.883391 h 1.381621 v 1.381621 h -1.381621 z" style="color:#4d4d4d;fill:#fff;fill-opacity:1;stroke:none;stroke-width:.99999994"/><path style="color:#4d4d4d;fill:#fff;fill-opacity:1;stroke:none;stroke-width:.99999994" id="path1028" d="m 19.927811,27.883391 h 1.381621 v 1.381621 h -1.381621 z"/><path id="path1030" d="m 19.927811,24.883391 h 1.381621 v 1.381621 h -1.381621 z" style="color:#4d4d4d;fill:#fff;fill-opacity:1;stroke:none;stroke-width:.99999994"/><path style="color:#4d4d4d;fill:#fff;fill-opacity:1;stroke:none;stroke-width:.99999994" id="path1032" d="m 19.927811,21.883391 h 1.381621 v 1.381621 h -1.381621 z"/><path id="path1034" d="m 19.927811,18.883391 h 1.381621 v 1.381621 h -1.381621 z" style="color:#4d4d4d;fill:#fff;fill-opacity:1;stroke:none;stroke-width:.99999994"/><path style="color:#4d4d4d;fill:#fff;fill-opacity:1;stroke:none;stroke-width:.99999994" id="path1036" d="m 19.927811,15.883391 h 1.381621 v 1.381621 h -1.381621 z"/><path id="path1038" d="m 19.927811,12.883391 h 1.381621 v 1.381621 h -1.381621 z" style="color:#4d4d4d;fill:#fff;fill-opacity:1;stroke:none;stroke-width:.99999994"/><path style="color:#4d4d4d;fill:#fff;fill-opacity:1;stroke:none;stroke-width:.99999994" id="path1040" d="m 19.927811,9.8833914 h 1.38162 v 1.3816206 h -1.38162 z"/><path id="path1042" d="m 19.927811,6.8833914 h 1.381621 v 1.381621 h -1.381621 z" style="color:#4d4d4d;fill:#fff;fill-opacity:1;stroke:none;stroke-width:.99999994"/><path style="color:#4d4d4d;fill:#fff;fill-opacity:1;stroke:none;stroke-width:.99999994" id="path1044" d="m 19.927811,3.8833914 h 1.381621 v 1.381621 h -1.381621 z"/><path id="path1046" d="m 19.927811,0.88339134 h 1.38162 V 2.2650124 h -1.38162 z" style="color:#4d4d4d;fill:#fff;fill-opacity:1;stroke:none;stroke-width:.99999994"/><path id="path1048" d="m 19.927811,42.883391 h 1.381621 v 1.381621 h -1.381621 z" style="color:#4d4d4d;fill:#fff;fill-opacity:1;stroke:none;stroke-width:.99999994"/><path style="color:#4d4d4d;fill:#fff;fill-opacity:1;stroke:none;stroke-width:.99999994" id="path1050" d="m 19.927811,45.883391 h 1.381621 v 1.381621 h -1.381621 z"/><path id="path1052" d="m 19.927811,48.883391 h 1.381621 v 1.381621 h -1.381621 z" style="color:#4d4d4d;fill:#fff;fill-opacity:1;stroke:none;stroke-width:.99999994"/><path style="color:#4d4d4d;fill:#fff;fill-opacity:1;stroke:none;stroke-width:.99999994" id="path1054" d="m 19.927811,51.883391 h 1.381621 v 1.381621 h -1.381621 z"/><path id="path1056" d="m 19.927811,54.883391 h 1.381621 v 1.381621 h -1.381621 z" style="color:#4d4d4d;fill:#fff;fill-opacity:1;stroke:none;stroke-width:.99999994"/><path style="color:#4d4d4d;fill:#fff;fill-opacity:1;stroke:none;stroke-width:.99999994" id="path1058" d="m 19.927811,57.883391 h 1.381621 v 1.381621 h -1.381621 z"/><path id="path1060" d="m 19.927811,60.883391 h 1.381621 v 1.381621 h -1.381621 z" style="color:#4d4d4d;fill:#fff;fill-opacity:1;stroke:none;stroke-width:.99999994"/><path style="color:#4d4d4d;fill:#fff;fill-opacity:1;stroke:none;stroke-width:.99999994" id="path1062" d="m 19.927811,60.883391 h 1.381621 v 1.381621 h -1.381621 z"/><path style="color:#4d4d4d;fill:#fff;fill-opacity:1;stroke:none;stroke-width:.99999994" id="path1064" d="m 19.927811,63.883391 h 1.381621 v 1.381621 h -1.381621 z"/><path id="path1066" d="m 19.927811,63.883391 h 1.381621 v 1.381621 h -1.381621 z" style="color:#4d4d4d;fill:#fff;fill-opacity:1;stroke:none;stroke-width:.99999994"/></svg>